<?xml version="1.0" encoding="utf-8"?>
<!-- Generator: Adobe Illustrator 18.1.1, SVG Export Plug-In . SVG Version: 6.00 Build 0)  -->
<svg version="1.1" id="Layer_1" xmlns="http://www.w3.org/2000/svg" xmlns:xlink="http://www.w3.org/1999/xlink" x="0px" y="0px"
	 viewBox="0 0 60 60" enable-background="new 0 0 60 60" xml:space="preserve">
<g id="Layer_4">
	<g>
		<path fill="#CE6F31" d="M29.2,0.3c0.2,0,0.4,0,0.4,0c0.2,0,0.5,0,0.9,0c5.5,0.2,9.5,2.7,11,3.8c2.4,1.7,4.1,3.6,5.3,5.3
			c0.9,1.1,2.4,3.3,3.1,6.5c0.6,2.5,0.4,4.7,0.2,6c0,0-0.7,5.1-4.6,10.5c-1.1,1.5-2.2,2.6-2.2,2.6c-1.1,1.1-1.6,1.5-3.3,3
			c0,0-1,1-2.2,2.1c-2.1,2.2-4.9,6.4-6.4,11.8c-1.2,4.5-1,7.7-1.5,7.7c-0.8,0-1.2-8.9-4.4-13.6c-1-1.6-2.3-3.2-2.3-3.2
			c-0.6-0.8-1.5-1.9-2.7-3.2c-2.1-2.3-2.8-2.5-5-4.8c-0.5-0.5-1.5-1.6-2.5-2.9c-2-2.7-3.2-5.5-3.7-7c-1.5-4.8-0.5-11.9,3.7-17.2
			C13.2,7.8,19,0.6,29.2,0.3z"/>
		<ellipse fill="#D8D8DB" cx="29.6" cy="20.1" rx="14.5" ry="14.1"/>
		<g>
			<g>
				<defs>
					<ellipse id="SVGID_1_" cx="29.6" cy="20.1" rx="14.5" ry="14.1"/>
				</defs>
				<clipPath id="SVGID_2_">
					<use xlink:href="#SVGID_1_"  overflow="visible"/>
				</clipPath>
				<rect x="12.4" y="22.6" clip-path="url(#SVGID_2_)" fill="#010101" width="47.2" height="6"/>
			</g>
			<g>
				<defs>
					<ellipse id="SVGID_3_" cx="29.6" cy="20.1" rx="14.5" ry="14.1"/>
				</defs>
				<clipPath id="SVGID_4_">
					<use xlink:href="#SVGID_3_"  overflow="visible"/>
				</clipPath>
				<polygon clip-path="url(#SVGID_4_)" fill="#FFFFFF" points="59.6,28.6 59.6,28.5 12.5,28.5 12.5,22.7 59.5,22.7 59.5,28.6 
					59.6,28.6 59.6,28.5 59.6,28.6 59.7,28.6 59.7,22.5 12.3,22.5 12.3,28.7 59.7,28.7 59.7,28.6 				"/>
			</g>
		</g>
		<path fill="#FFFFFF" d="M44.2,20.1L44.2,20.1c-0.1,3.9-1.7,7.4-4.3,9.9c-2.6,2.5-6.2,4.1-10.2,4.1c-4,0-7.6-1.6-10.2-4.1
			c-2.6-2.5-4.2-6-4.2-9.9c0-3.9,1.6-7.4,4.2-9.9c2.6-2.5,6.2-4.1,10.2-4.1c4,0,7.6,1.6,10.2,4.1C42.5,12.8,44.1,16.3,44.2,20.1
			L44.2,20.1L44.2,20.1c0.1-3.9-1.5-7.4-4.2-10c-2.6-2.6-6.3-4.2-10.3-4.2S22,7.5,19.3,10.1c-2.6,2.6-4.3,6.1-4.3,10s1.6,7.4,4.3,10
			c2.6,2.6,6.3,4.2,10.3,4.2s7.7-1.6,10.3-4.2C42.6,27.6,44.2,24,44.2,20.1L44.2,20.1z"/>
		<rect x="32.8" y="18.9" fill="#FFFFFF" width="1.1" height="0.9"/>
		<polygon fill="#FFFFFF" points="33.9,19.8 33.9,19.7 32.9,19.7 32.9,19 33.8,19 33.8,19.8 33.9,19.8 33.9,19.7 33.9,19.8 34,19.8 
			34,18.9 32.7,18.9 32.7,19.9 34,19.9 34,19.8 		"/>
		<rect x="32.8" y="18.9" fill="#FFFFFF" width="1.1" height="0.9"/>
		<polygon fill="#FFFFFF" points="33.9,19.8 33.9,19.7 32.9,19.7 32.9,19 33.8,19 33.8,19.8 33.9,19.8 33.9,19.7 33.9,19.8 34,19.8 
			34,18.9 32.7,18.9 32.7,19.9 34,19.9 34,19.8 		"/>
		<rect x="32.8" y="18.9" fill="#FFFFFF" width="1.1" height="0.9"/>
		<polygon fill="#FFFFFF" points="33.9,19.8 33.9,19.7 32.9,19.7 32.9,19 33.8,19 33.8,19.8 33.9,19.8 33.9,19.7 33.9,19.8 34,19.8 
			34,18.9 32.7,18.9 32.7,19.9 34,19.9 34,19.8 		"/>
		<rect x="32.8" y="18.9" fill="#FFFFFF" width="1.1" height="0.9"/>
		<polygon fill="#FFFFFF" points="33.9,19.8 33.9,19.7 32.9,19.7 32.9,19 33.8,19 33.8,19.8 33.9,19.8 33.9,19.7 33.9,19.8 34,19.8 
			34,18.9 32.7,18.9 32.7,19.9 34,19.9 34,19.8 		"/>
		<rect x="32.8" y="18.9" fill="#FFFFFF" width="1.1" height="0.9"/>
		<polygon fill="#FFFFFF" points="33.9,19.8 33.9,19.7 32.9,19.7 32.9,19 33.8,19 33.8,19.8 33.9,19.8 33.9,19.7 33.9,19.8 34,19.8 
			34,18.9 32.7,18.9 32.7,19.9 34,19.9 34,19.8 		"/>
		<rect x="32.8" y="18.9" fill="#FFFFFF" width="1.1" height="0.9"/>
		<polygon fill="#FFFFFF" points="33.9,19.8 33.9,19.7 32.9,19.7 32.9,19 33.8,19 33.8,19.8 33.9,19.8 33.9,19.7 33.9,19.8 34,19.8 
			34,18.9 32.7,18.9 32.7,19.9 34,19.9 34,19.8 		"/>
		<rect x="32.8" y="18.9" fill="#FFFFFF" width="1.1" height="0.9"/>
		<polygon fill="#FFFFFF" points="33.9,19.8 33.9,19.7 32.9,19.7 32.9,19 33.8,19 33.8,19.8 33.9,19.8 33.9,19.7 33.9,19.8 34,19.8 
			34,18.9 32.7,18.9 32.7,19.9 34,19.9 34,19.8 		"/>
		<rect x="32.8" y="18.9" fill="#FFFFFF" width="1.1" height="0.9"/>
		<polygon fill="#FFFFFF" points="33.9,19.8 33.9,19.7 32.9,19.7 32.9,19 33.8,19 33.8,19.8 33.9,19.8 33.9,19.7 33.9,19.8 34,19.8 
			34,18.9 32.7,18.9 32.7,19.9 34,19.9 34,19.8 		"/>
		<rect x="32.8" y="18.9" fill="#FFFFFF" width="1.1" height="0.9"/>
		<polygon fill="#FFFFFF" points="33.9,19.8 33.9,19.7 32.9,19.7 32.9,19 33.8,19 33.8,19.8 33.9,19.8 33.9,19.7 33.9,19.8 34,19.8 
			34,18.8 32.7,18.8 32.7,19.9 34,19.9 34,19.8 		"/>
		<rect x="32.8" y="18.9" fill="#FFFFFF" width="1.1" height="0.9"/>
		<polygon fill="#FFFFFF" points="33.9,19.8 33.9,19.7 32.9,19.7 32.9,19 33.8,19 33.8,19.8 33.9,19.8 33.9,19.7 33.9,19.8 34,19.8 
			34,18.8 32.7,18.8 32.7,19.9 34,19.9 34,19.8 		"/>
		<rect x="32.8" y="18.9" fill="#FFFFFF" width="1.1" height="0.9"/>
		<polygon fill="#FFFFFF" points="33.9,19.8 33.9,19.7 32.9,19.7 32.9,19 33.8,19 33.8,19.8 33.9,19.8 33.9,19.7 33.9,19.8 34,19.8 
			34,18.9 32.7,18.9 32.7,19.9 34,19.9 34,19.8 		"/>
		<rect x="30.3" y="16.8" fill="#FFFFFF" width="1.1" height="0.9"/>
		<polygon fill="#FFFFFF" points="31.4,17.7 31.4,17.6 30.4,17.6 30.4,16.9 31.3,16.9 31.3,17.7 31.4,17.7 31.4,17.6 31.4,17.7 
			31.5,17.7 31.5,16.7 30.2,16.7 30.2,17.8 31.5,17.8 31.5,17.7 		"/>
		<rect x="30.3" y="16.6" fill="#FFFFFF" width="1.1" height="0.9"/>
		<polygon fill="#FFFFFF" points="31.4,17.5 31.4,17.4 30.4,17.4 30.4,16.7 31.3,16.7 31.3,17.5 31.4,17.5 31.4,17.4 31.4,17.5 
			31.5,17.5 31.5,16.6 30.2,16.6 30.2,17.6 31.5,17.6 31.5,17.5 		"/>
		<rect x="30.3" y="16.7" fill="#FFFFFF" width="1.1" height="0.9"/>
		<polygon fill="#FFFFFF" points="31.5,17.6 31.5,17.5 30.4,17.5 30.4,16.8 31.4,16.8 31.4,17.6 31.5,17.6 31.5,17.5 31.5,17.6 
			31.5,17.6 31.5,16.6 30.3,16.6 30.3,17.7 31.5,17.7 31.5,17.6 		"/>
		<rect x="30.3" y="16.7" fill="#FFFFFF" width="1.1" height="0.9"/>
		<polygon fill="#FFFFFF" points="31.5,17.6 31.5,17.5 30.4,17.5 30.4,16.8 31.4,16.8 31.4,17.6 31.5,17.6 31.5,17.5 31.5,17.6 
			31.5,17.6 31.5,16.6 30.3,16.6 30.3,17.7 31.5,17.7 31.5,17.6 		"/>
		<rect x="30.3" y="16.7" fill="#FFFFFF" width="1.1" height="0.9"/>
		<polygon fill="#FFFFFF" points="31.5,17.6 31.5,17.5 30.4,17.5 30.4,16.8 31.4,16.8 31.4,17.6 31.5,17.6 31.5,17.5 31.5,17.6 
			31.5,17.6 31.5,16.6 30.3,16.6 30.3,17.7 31.5,17.7 31.5,17.6 		"/>
		<rect x="36.6" y="13" fill="#0390B6" width="4.6" height="9.7"/>
		<rect x="37.3" y="14.1" fill="#FFFFFF" width="1.1" height="0.9"/>
		<polygon fill="#FFFFFF" points="38.5,15 38.5,14.9 37.4,14.9 37.4,14.2 38.4,14.2 38.4,15 38.5,15 38.5,14.9 38.5,15 38.6,15 
			38.6,14 37.3,14 37.3,15 38.6,15 38.6,15 		"/>
		<rect x="37.3" y="16.8" fill="#FFFFFF" width="1.1" height="0.9"/>
		<polygon fill="#FFFFFF" points="38.5,17.7 38.5,17.6 37.4,17.6 37.4,16.9 38.4,16.9 38.4,17.7 38.5,17.7 38.5,17.6 38.5,17.7 
			38.6,17.7 38.6,16.7 37.3,16.7 37.3,17.8 38.6,17.8 38.6,17.7 		"/>
		<rect x="37.3" y="19.5" fill="#FFFFFF" width="1.1" height="0.9"/>
		<polygon fill="#FFFFFF" points="38.5,20.4 38.5,20.3 37.4,20.3 37.4,19.6 38.4,19.6 38.4,20.4 38.5,20.4 38.5,20.3 38.5,20.4 
			38.6,20.4 38.6,19.4 37.3,19.4 37.3,20.5 38.6,20.5 38.6,20.4 		"/>
		<rect x="39.5" y="19.5" fill="#FFFFFF" width="1.1" height="0.9"/>
		<polygon fill="#FFFFFF" points="40.6,20.4 40.6,20.3 39.5,20.3 39.5,19.6 40.5,19.6 40.5,20.4 40.6,20.4 40.6,20.3 40.6,20.4 
			40.6,20.4 40.6,19.4 39.4,19.4 39.4,20.5 40.6,20.5 40.6,20.4 		"/>
		<rect x="39.5" y="16.8" fill="#FFFFFF" width="1.1" height="0.9"/>
		<polygon fill="#FFFFFF" points="40.6,17.7 40.6,17.6 39.5,17.6 39.5,16.9 40.5,16.9 40.5,17.7 40.6,17.7 40.6,17.6 40.6,17.7 
			40.6,17.7 40.6,16.7 39.4,16.7 39.4,17.8 40.6,17.8 40.6,17.7 		"/>
		<rect x="39.5" y="14.1" fill="#FFFFFF" width="1.1" height="0.9"/>
		<polygon fill="#FFFFFF" points="40.6,15 40.6,14.9 39.5,14.9 39.5,14.2 40.5,14.2 40.5,15 40.6,15 40.6,14.9 40.6,15 40.6,15 
			40.6,14 39.4,14 39.4,15 40.6,15 40.6,15 		"/>
		<rect x="33.3" y="14.3" fill="#FFFFFF" width="1.1" height="0.9"/>
		<polygon fill="#FFFFFF" points="34.4,15.2 34.4,15.1 33.4,15.1 33.4,14.4 34.3,14.4 34.3,15.2 34.4,15.2 34.4,15.1 34.4,15.2 
			34.5,15.2 34.5,14.2 33.2,14.2 33.2,15.3 34.5,15.3 34.5,15.2 		"/>
		<rect x="33.3" y="14.2" fill="#FFFFFF" width="1.1" height="0.9"/>
		<polygon fill="#FFFFFF" points="34.4,15.1 34.4,15 33.4,15 33.4,14.3 34.3,14.3 34.3,15.1 34.4,15.1 34.4,15 34.4,15.1 34.5,15.1 
			34.5,14.2 33.2,14.2 33.2,15.2 34.5,15.2 34.5,15.1 		"/>
		<rect x="33.3" y="14.3" fill="#FFFFFF" width="1.1" height="0.9"/>
		<polygon fill="#FFFFFF" points="34.4,15.2 34.4,15.1 33.4,15.1 33.4,14.4 34.3,14.4 34.3,15.2 34.4,15.2 34.4,15.1 34.4,15.2 
			34.5,15.2 34.5,14.2 33.2,14.2 33.2,15.3 34.5,15.3 34.5,15.2 		"/>
		<rect x="33.3" y="14.2" fill="#FFFFFF" width="1.1" height="0.9"/>
		<polygon fill="#FFFFFF" points="34.4,15.1 34.4,15 33.4,15 33.4,14.3 34.3,14.3 34.3,15.1 34.4,15.1 34.4,15 34.4,15.1 34.5,15.1 
			34.5,14.2 33.2,14.2 33.2,15.2 34.5,15.2 34.5,15.1 		"/>
		<rect x="33.3" y="14.3" fill="#FFFFFF" width="1.1" height="0.9"/>
		<polygon fill="#FFFFFF" points="34.4,15.2 34.4,15.1 33.4,15.1 33.4,14.4 34.3,14.4 34.3,15.2 34.4,15.2 34.4,15.1 34.4,15.2 
			34.5,15.2 34.5,14.2 33.2,14.2 33.2,15.3 34.5,15.3 34.5,15.2 		"/>
		<rect x="19.3" y="20.8" fill="#FFFFFF" width="1.1" height="0.9"/>
		<polygon fill="#FFFFFF" points="20.4,21.7 20.4,21.6 19.3,21.6 19.3,20.9 20.3,20.9 20.3,21.7 20.4,21.7 20.4,21.6 20.4,21.7 
			20.5,21.7 20.5,20.8 19.2,20.8 19.2,21.8 20.5,21.8 20.5,21.7 		"/>
		<line fill="none" x1="15.3" y1="22.4" x2="43.9" y2="22.6"/>
		<line fill="none" x1="18.8" y1="24.4" x2="38.7" y2="24.4"/>
		<rect x="20.4" y="25.2" fill="#FFFFFF" width="2.1" height="0.9"/>
		<polygon fill="#231F20" points="22.5,26.1 22.5,26 20.5,26 20.5,25.3 22.4,25.3 22.4,26.1 22.5,26.1 22.5,26 22.5,26.1 22.6,26.1 
			22.6,25.2 20.3,25.2 20.3,26.2 22.6,26.2 22.6,26.1 		"/>
		<rect x="23.7" y="25.2" fill="#FFFFFF" width="2.1" height="0.9"/>
		<polygon fill="#231F20" points="25.9,26.1 25.9,26 23.8,26 23.8,25.3 25.8,25.3 25.8,26.1 25.9,26.1 25.9,26 25.9,26.1 26,26.1 
			26,25.2 23.7,25.2 23.7,26.2 26,26.2 26,26.1 		"/>
		<rect x="27.3" y="25.2" fill="#FFFFFF" width="2.1" height="0.9"/>
		<polygon fill="#231F20" points="29.4,26.1 29.4,26 27.4,26 27.4,25.3 29.3,25.3 29.3,26.1 29.4,26.1 29.4,26 29.4,26.1 29.5,26.1 
			29.5,25.2 27.2,25.2 27.2,26.2 29.5,26.2 29.5,26.1 		"/>
		<rect x="30.5" y="25.2" fill="#FFFFFF" width="2.1" height="0.9"/>
		<polygon fill="#231F20" points="32.6,26.1 32.6,26 30.6,26 30.6,25.3 32.6,25.3 32.6,26.1 32.6,26.1 32.6,26 32.6,26.1 32.7,26.1 
			32.7,25.2 30.4,25.2 30.4,26.2 32.7,26.2 32.7,26.1 		"/>
		<rect x="33.9" y="25.2" fill="#FFFFFF" width="2.1" height="0.9"/>
		<polygon fill="#231F20" points="36,26.1 36,26 33.9,26 33.9,25.3 35.9,25.3 35.9,26.1 36,26.1 36,26 36,26.1 36.1,26.1 36.1,25.2 
			33.8,25.2 33.8,26.2 36.1,26.2 36.1,26.1 		"/>
		<rect x="40.2" y="25.2" fill="#FFFFFF" width="2.1" height="0.9"/>
		<polygon fill="#231F20" points="42.4,26.1 42.4,26 40.3,26 40.3,25.3 42.3,25.3 42.3,26.1 42.4,26.1 42.4,26 42.4,26.1 42.5,26.1 
			42.5,25.2 40.1,25.2 40.1,26.2 42.5,26.2 42.5,26.1 		"/>
		<rect x="37" y="25.2" fill="#FFFFFF" width="2.1" height="0.9"/>
		<polygon fill="#231F20" points="39.2,26.1 39.2,26 37.1,26 37.1,25.3 39.1,25.3 39.1,26.1 39.2,26.1 39.2,26 39.2,26.1 39.3,26.1 
			39.3,25.2 37,25.2 37,26.2 39.3,26.2 39.3,26.1 		"/>
		<rect x="17" y="25.2" fill="#FFFFFF" width="2.1" height="0.9"/>
		<polygon fill="#231F20" points="19.1,26.1 19.1,26 17.1,26 17.1,25.3 19,25.3 19,26.1 19.1,26.1 19.1,26 19.1,26.1 19.2,26.1 
			19.2,25.2 16.9,25.2 16.9,26.2 19.2,26.2 19.2,26.1 		"/>
		<rect x="22.5" y="14.7" fill="#0390B6" width="4.6" height="8"/>
		<rect x="28.9" y="10.1" fill="#0390B6" width="5.7" height="12.6"/>
		<rect x="16.5" y="17.6" fill="#0390B6" width="4.6" height="5.1"/>
		<rect x="23.2" y="15.9" fill="#FFFFFF" width="1.1" height="0.9"/>
		<polygon fill="#FFFFFF" points="24.3,16.8 24.3,16.7 23.3,16.7 23.3,16 24.2,16 24.2,16.8 24.3,16.8 24.3,16.7 24.3,16.8 
			24.4,16.8 24.4,15.8 23.1,15.8 23.1,16.9 24.4,16.9 24.4,16.8 		"/>
		<rect x="23.2" y="17.8" fill="#FFFFFF" width="1.1" height="0.9"/>
		<polygon fill="#FFFFFF" points="24.3,18.7 24.3,18.6 23.3,18.6 23.3,17.9 24.2,17.9 24.2,18.7 24.3,18.7 24.3,18.6 24.3,18.7 
			24.4,18.7 24.4,17.8 23.1,17.8 23.1,18.8 24.4,18.8 24.4,18.7 		"/>
		<rect x="23.2" y="19.7" fill="#FFFFFF" width="1.1" height="0.9"/>
		<polygon fill="#FFFFFF" points="24.3,20.6 24.3,20.5 23.3,20.5 23.3,19.8 24.2,19.8 24.2,20.6 24.3,20.6 24.3,20.5 24.3,20.6 
			24.4,20.6 24.4,19.6 23.1,19.6 23.1,20.7 24.4,20.7 24.4,20.6 		"/>
		<rect x="25.3" y="19.7" fill="#FFFFFF" width="1.1" height="0.9"/>
		<polygon fill="#FFFFFF" points="26.4,20.6 26.4,20.5 25.4,20.5 25.4,19.8 26.3,19.8 26.3,20.6 26.4,20.6 26.4,20.5 26.4,20.6 
			26.5,20.6 26.5,19.6 25.2,19.6 25.2,20.7 26.5,20.7 26.5,20.6 		"/>
		<rect x="25.3" y="17.8" fill="#FFFFFF" width="1.1" height="0.9"/>
		<polygon fill="#FFFFFF" points="26.4,18.7 26.4,18.6 25.4,18.6 25.4,17.9 26.3,17.9 26.3,18.7 26.4,18.7 26.4,18.6 26.4,18.7 
			26.5,18.7 26.5,17.7 25.2,17.7 25.2,18.8 26.5,18.8 26.5,18.7 		"/>
		<rect x="25.3" y="15.9" fill="#FFFFFF" width="1.1" height="0.9"/>
		<polygon fill="#FFFFFF" points="26.4,16.8 26.4,16.7 25.4,16.7 25.4,16 26.3,16 26.3,16.8 26.4,16.8 26.4,16.7 26.4,16.8 
			26.5,16.8 26.5,15.8 25.2,15.8 25.2,16.9 26.5,16.9 26.5,16.8 		"/>
		<rect x="17" y="18.5" fill="#FFFFFF" width="1.1" height="0.9"/>
		<polygon fill="#FFFFFF" points="18.1,19.3 18.1,19.3 17.1,19.3 17.1,18.5 18,18.5 18,19.3 18.1,19.3 18.1,19.3 18.1,19.3 
			18.2,19.3 18.2,18.4 16.9,18.4 16.9,19.4 18.2,19.4 18.2,19.3 		"/>
		<rect x="19.3" y="18.5" fill="#FFFFFF" width="1.1" height="0.9"/>
		<polygon fill="#FFFFFF" points="20.4,19.3 20.4,19.3 19.3,19.3 19.3,18.5 20.3,18.5 20.3,19.3 20.4,19.3 20.4,19.3 20.4,19.3 
			20.5,19.3 20.5,18.4 19.2,18.4 19.2,19.4 20.5,19.4 20.5,19.3 		"/>
		<rect x="30.2" y="11.7" fill="#FFFFFF" width="1.1" height="0.9"/>
		<polygon fill="#FFFFFF" points="31.3,12.6 31.3,12.5 30.3,12.5 30.3,11.8 31.2,11.8 31.2,12.6 31.3,12.6 31.3,12.5 31.3,12.6 
			31.4,12.6 31.4,11.6 30.1,11.6 30.1,12.7 31.4,12.7 31.4,12.6 		"/>
		<rect x="30.2" y="14.2" fill="#FFFFFF" width="1.1" height="0.9"/>
		<polygon fill="#FFFFFF" points="31.3,15.1 31.3,15 30.3,15 30.3,14.3 31.2,14.3 31.2,15.1 31.3,15.1 31.3,15 31.3,15.1 31.4,15.1 
			31.4,14.2 30.1,14.2 30.1,15.2 31.4,15.2 31.4,15.1 		"/>
		<rect x="32.4" y="14.2" fill="#FFFFFF" width="1.1" height="0.9"/>
		<polygon fill="#FFFFFF" points="33.5,15.1 33.5,15 32.5,15 32.5,14.3 33.4,14.3 33.4,15.1 33.5,15.1 33.5,15 33.5,15.1 33.6,15.1 
			33.6,14.2 32.3,14.2 32.3,15.2 33.6,15.2 33.6,15.1 		"/>
		<rect x="32.3" y="11.7" fill="#FFFFFF" width="1.1" height="0.9"/>
		<polygon fill="#FFFFFF" points="33.4,12.6 33.4,12.5 32.3,12.5 32.3,11.8 33.3,11.8 33.3,12.6 33.4,12.6 33.4,12.5 33.4,12.6 
			33.5,12.6 33.5,11.6 32.2,11.6 32.2,12.7 33.5,12.7 33.5,12.6 		"/>
		<rect x="30.1" y="16.6" fill="#FFFFFF" width="1.1" height="0.9"/>
		<polygon fill="#FFFFFF" points="31.2,17.4 31.2,17.4 30.2,17.4 30.2,16.6 31.2,16.6 31.2,17.4 31.2,17.4 31.2,17.4 31.2,17.4 
			31.3,17.4 31.3,16.5 30.1,16.5 30.1,17.5 31.3,17.5 31.3,17.4 		"/>
		<rect x="30.2" y="19.1" fill="#FFFFFF" width="1.1" height="0.9"/>
		<polygon fill="#FFFFFF" points="31.3,20 31.3,19.9 30.3,19.9 30.3,19.2 31.2,19.2 31.2,20 31.3,20 31.3,19.9 31.3,20 31.4,20 
			31.4,19 30.1,19 30.1,20.1 31.4,20.1 31.4,20 		"/>
		<rect x="32.4" y="19.1" fill="#FFFFFF" width="1.1" height="0.9"/>
		<polygon fill="#FFFFFF" points="33.5,20 33.5,19.9 32.5,19.9 32.5,19.2 33.4,19.2 33.4,20 33.5,20 33.5,19.9 33.5,20 33.6,20 
			33.6,19 32.3,19 32.3,20.1 33.6,20.1 33.6,20 		"/>
		<rect x="32.4" y="16.6" fill="#FFFFFF" width="1.1" height="0.9"/>
		<polygon fill="#FFFFFF" points="33.5,17.4 33.5,17.4 32.5,17.4 32.5,16.6 33.4,16.6 33.4,17.4 33.5,17.4 33.5,17.4 33.5,17.4 
			33.6,17.4 33.6,16.5 32.3,16.5 32.3,17.5 33.6,17.5 33.6,17.4 		"/>
		
			<rect x="17" y="20.8" transform="matrix(-1 -4.873169e-003 4.873169e-003 -1 35.0177 42.6683)" fill="#FFFFFF" width="1.1" height="0.9"/>
		<polygon fill="#FFFFFF" points="18.1,21.7 18.1,21.6 17.1,21.6 17.1,20.9 18,20.9 18,21.7 18.1,21.7 18.1,21.6 18.1,21.7 
			18.2,21.7 18.2,20.8 16.9,20.8 16.9,21.8 18.2,21.8 18.2,21.7 		"/>
		<rect x="19.3" y="20.8" fill="#FFFFFF" width="1.1" height="0.9"/>
		<polygon fill="#FFFFFF" points="20.4,21.7 20.4,21.6 19.3,21.6 19.3,20.9 20.3,20.9 20.3,21.7 20.4,21.7 20.4,21.6 20.4,21.7 
			20.5,21.7 20.5,20.8 19.2,20.8 19.2,21.8 20.5,21.8 20.5,21.7 		"/>
	</g>
</g>
</svg>
