<?xml version="1.0" encoding="utf-8"?>
<!-- Generator: Adobe Illustrator 18.1.1, SVG Export Plug-In . SVG Version: 6.00 Build 0)  -->
<svg version="1.1" id="Layer_1" xmlns="http://www.w3.org/2000/svg" xmlns:xlink="http://www.w3.org/1999/xlink" x="0px" y="0px"
	 viewBox="0 0 595.3 841.9" enable-background="new 0 0 595.3 841.9" xml:space="preserve">
<g id="Layer_4">
	<g>
		<path fill="#FFE300" d="M256.9,389.1c0.2,0,0.4,0,0.4,0c0.2,0,0.4,0,0.8,0c4.8,0.1,8.5,2.5,9.8,3.3c2.2,1.5,3.6,3.2,4.8,4.8
			c0.8,1,2.2,3,2.8,5.7c0.5,2.2,0.4,4.2,0.1,5.4c0,0-0.6,4.5-4.2,9.3c-1,1.3-1.9,2.3-1.9,2.3c-1,1-1.5,1.3-2.9,2.7
			c0,0-0.9,0.9-1.9,1.9c-1.9,1.9-4.3,5.7-5.7,10.5c-1.1,4-0.9,6.8-1.3,6.8c-0.7,0-1.1-7.9-3.9-12.1c-0.9-1.4-2.1-2.8-2.1-2.8
			c-0.5-0.7-1.3-1.7-2.4-2.8c-1.9-2-2.5-2.2-4.5-4.2c-0.4-0.4-1.3-1.4-2.2-2.6c-1.8-2.4-2.8-4.8-3.3-6.3c-1.3-4.3-0.5-10.6,3.3-15.3
			C242.7,395.7,247.9,389.3,256.9,389.1z"/>
		<ellipse fill="#D8D8DB" cx="257.4" cy="406.7" rx="12.9" ry="12.5"/>
		<g>
			<g>
				<defs>
					<ellipse id="SVGID_1_" cx="257.4" cy="406.7" rx="12.9" ry="12.5"/>
				</defs>
				<clipPath id="SVGID_2_">
					<use xlink:href="#SVGID_1_"  overflow="visible"/>
				</clipPath>
				<rect x="242" y="408.9" clip-path="url(#SVGID_2_)" width="30.5" height="5.4"/>
			</g>
			<g>
				<defs>
					<ellipse id="SVGID_3_" cx="257.4" cy="406.7" rx="12.9" ry="12.5"/>
				</defs>
				<clipPath id="SVGID_4_">
					<use xlink:href="#SVGID_3_"  overflow="visible"/>
				</clipPath>
				<polygon clip-path="url(#SVGID_4_)" fill="#FFFFFF" points="270.1,414.2 270.1,414.2 242,414.2 242,409 270,409 270,414.2 
					270.1,414.2 270.1,414.2 270.1,414.2 270.1,414.2 270.1,408.8 241.9,408.8 241.9,414.3 270.1,414.3 270.1,414.2 				"/>
			</g>
		</g>
		<path fill="#FFFFFF" d="M270.3,406.7L270.3,406.7c-0.1,3.4-1.5,6.5-3.9,8.8c-2.3,2.2-5.5,3.6-9.1,3.6c-3.6,0-6.8-1.4-9.1-3.6
			s-3.8-5.4-3.8-8.8c0-3.4,1.4-6.5,3.8-8.8c2.3-2.2,5.5-3.6,9.1-3.6c3.6,0,6.8,1.4,9.1,3.6C268.7,400.1,270.2,403.2,270.3,406.7
			L270.3,406.7L270.3,406.7c0.1-3.5-1.4-6.6-3.7-8.9c-2.4-2.3-5.6-3.7-9.2-3.7c-3.6,0-6.8,1.4-9.2,3.7c-2.4,2.3-3.8,5.4-3.8,8.9
			s1.5,6.6,3.8,8.9c2.4,2.3,5.6,3.7,9.2,3.7c3.6,0,6.8-1.4,9.2-3.7C268.9,413.3,270.3,410.2,270.3,406.7L270.3,406.7z"/>
		<rect x="260.1" y="405.6" fill="#FFFFFF" width="1" height="0.8"/>
		<polygon fill="#FFFFFF" points="261.2,406.4 261.2,406.4 260.2,406.4 260.2,405.7 261,405.7 261,406.4 261.2,406.4 261.2,406.4 
			261.2,406.4 261.3,406.4 261.3,405.5 260.1,405.5 260.1,406.5 261.3,406.5 261.3,406.4 		"/>
		<rect x="260.1" y="405.6" fill="#FFFFFF" width="1" height="0.8"/>
		<polygon fill="#FFFFFF" points="261.2,406.4 261.2,406.4 260.2,406.4 260.2,405.7 261,405.7 261,406.4 261.2,406.4 261.2,406.4 
			261.2,406.4 261.3,406.4 261.3,405.5 260.1,405.5 260.1,406.5 261.3,406.5 261.3,406.4 		"/>
		<rect x="260.1" y="405.6" fill="#FFFFFF" width="1" height="0.8"/>
		<polygon fill="#FFFFFF" points="261.2,406.4 261.2,406.4 260.2,406.4 260.2,405.7 261,405.7 261,406.4 261.2,406.4 261.2,406.4 
			261.2,406.4 261.3,406.4 261.3,405.5 260.1,405.5 260.1,406.5 261.3,406.5 261.3,406.4 		"/>
		<rect x="260.1" y="405.6" fill="#FFFFFF" width="1" height="0.8"/>
		<polygon fill="#FFFFFF" points="261.2,406.4 261.2,406.4 260.2,406.4 260.2,405.7 261,405.7 261,406.4 261.2,406.4 261.2,406.4 
			261.2,406.4 261.3,406.4 261.3,405.5 260.1,405.5 260.1,406.5 261.3,406.5 261.3,406.4 		"/>
		<rect x="260.1" y="405.6" fill="#FFFFFF" width="1" height="0.8"/>
		<polygon fill="#FFFFFF" points="261.2,406.4 261.2,406.4 260.2,406.4 260.2,405.7 261,405.7 261,406.4 261.2,406.4 261.2,406.4 
			261.2,406.4 261.3,406.4 261.3,405.5 260.1,405.5 260.1,406.5 261.3,406.5 261.3,406.4 		"/>
		<rect x="260.1" y="405.6" fill="#FFFFFF" width="1" height="0.8"/>
		<polygon fill="#FFFFFF" points="261.2,406.4 261.2,406.4 260.2,406.4 260.2,405.7 261,405.7 261,406.4 261.2,406.4 261.2,406.4 
			261.2,406.4 261.3,406.4 261.3,405.5 260.1,405.5 260.1,406.5 261.3,406.5 261.3,406.4 		"/>
		<rect x="260.1" y="405.6" fill="#FFFFFF" width="1" height="0.8"/>
		<polygon fill="#FFFFFF" points="261.2,406.4 261.2,406.4 260.2,406.4 260.2,405.7 261,405.7 261,406.4 261.2,406.4 261.2,406.4 
			261.2,406.4 261.3,406.4 261.3,405.5 260.1,405.5 260.1,406.5 261.3,406.5 261.3,406.4 		"/>
		<rect x="260.1" y="405.6" fill="#FFFFFF" width="1" height="0.8"/>
		<polygon fill="#FFFFFF" points="261.2,406.4 261.2,406.4 260.2,406.4 260.2,405.7 261,405.7 261,406.4 261.2,406.4 261.2,406.4 
			261.2,406.4 261.3,406.4 261.3,405.5 260.1,405.5 260.1,406.5 261.3,406.5 261.3,406.4 		"/>
		<rect x="260.1" y="405.6" fill="#FFFFFF" width="1" height="0.8"/>
		<polygon fill="#FFFFFF" points="261.2,406.4 261.2,406.3 260.2,406.3 260.2,405.7 261,405.7 261,406.4 261.2,406.4 261.2,406.3 
			261.2,406.4 261.3,406.4 261.3,405.5 260.1,405.5 260.1,406.4 261.3,406.4 261.3,406.4 		"/>
		<rect x="260.1" y="405.6" fill="#FFFFFF" width="1" height="0.8"/>
		<polygon fill="#FFFFFF" points="261.2,406.4 261.2,406.3 260.2,406.3 260.2,405.7 261,405.7 261,406.4 261.2,406.4 261.2,406.3 
			261.2,406.4 261.3,406.4 261.3,405.5 260.1,405.5 260.1,406.4 261.3,406.4 261.3,406.4 		"/>
		<rect x="260.1" y="405.6" fill="#FFFFFF" width="1" height="0.8"/>
		<polygon fill="#FFFFFF" points="261.2,406.4 261.2,406.4 260.2,406.4 260.2,405.7 261,405.7 261,406.4 261.2,406.4 261.2,406.4 
			261.2,406.4 261.3,406.4 261.3,405.5 260.1,405.5 260.1,406.5 261.3,406.5 261.3,406.4 		"/>
		<rect x="258" y="403.8" fill="#FFFFFF" width="1" height="0.8"/>
		<polygon fill="#FFFFFF" points="258.9,404.5 258.9,404.4 258.1,404.4 258.1,403.8 258.9,403.8 258.9,404.5 258.9,404.5 
			258.9,404.4 258.9,404.5 259,404.5 259,403.7 257.9,403.7 257.9,404.6 259,404.6 259,404.5 		"/>
		<rect x="258" y="403.6" fill="#FFFFFF" width="1" height="0.8"/>
		<polygon fill="#FFFFFF" points="258.9,404.4 258.9,404.3 258.1,404.3 258.1,403.7 258.9,403.7 258.9,404.4 258.9,404.4 
			258.9,404.3 258.9,404.4 259,404.4 259,403.5 257.9,403.5 257.9,404.4 259,404.4 259,404.4 		"/>
		<rect x="258" y="403.7" fill="#FFFFFF" width="1" height="0.8"/>
		<polygon fill="#FFFFFF" points="258.9,404.4 258.9,404.4 258.1,404.4 258.1,403.8 258.9,403.8 258.9,404.4 258.9,404.4 
			258.9,404.4 258.9,404.4 259,404.4 259,403.6 257.9,403.6 257.9,404.5 259,404.5 259,404.4 		"/>
		<rect x="258" y="403.7" fill="#FFFFFF" width="1" height="0.8"/>
		<polygon fill="#FFFFFF" points="258.9,404.4 258.9,404.4 258.1,404.4 258.1,403.8 258.9,403.8 258.9,404.4 258.9,404.4 
			258.9,404.4 258.9,404.4 259,404.4 259,403.6 257.9,403.6 257.9,404.5 259,404.5 259,404.4 		"/>
		<rect x="258" y="403.7" fill="#FFFFFF" width="1" height="0.8"/>
		<polygon fill="#FFFFFF" points="258.9,404.4 258.9,404.4 258.1,404.4 258.1,403.8 258.9,403.8 258.9,404.4 258.9,404.4 
			258.9,404.4 258.9,404.4 259,404.4 259,403.6 257.9,403.6 257.9,404.5 259,404.5 259,404.4 		"/>
		<rect x="263.6" y="400.3" fill="#008FB6" width="4.1" height="8.6"/>
		<rect x="264.2" y="401.3" fill="#FFFFFF" width="1" height="0.8"/>
		<polygon fill="#FFFFFF" points="265.2,402 265.2,402 264.3,402 264.3,401.4 265.1,401.4 265.1,402 265.2,402 265.2,402 265.2,402 
			265.3,402 265.3,401.2 264.2,401.2 264.2,402.1 265.3,402.1 265.3,402 		"/>
		<rect x="264.2" y="403.8" fill="#FFFFFF" width="1" height="0.8"/>
		<polygon fill="#FFFFFF" points="265.2,404.5 265.2,404.4 264.3,404.4 264.3,403.8 265.1,403.8 265.1,404.5 265.2,404.5 
			265.2,404.4 265.2,404.5 265.3,404.5 265.3,403.7 264.2,403.7 264.2,404.6 265.3,404.6 265.3,404.5 		"/>
		<rect x="264.2" y="406.1" fill="#FFFFFF" width="1" height="0.8"/>
		<polygon fill="#FFFFFF" points="265.2,407 265.2,406.9 264.3,406.9 264.3,406.2 265.1,406.2 265.1,407 265.2,407 265.2,406.9 
			265.2,407 265.3,407 265.3,406.1 264.2,406.1 264.2,407 265.3,407 265.3,407 		"/>
		<rect x="266.1" y="406.1" fill="#FFFFFF" width="1" height="0.8"/>
		<polygon fill="#FFFFFF" points="267.1,407 267.1,406.9 266.2,406.9 266.2,406.2 267,406.2 267,407 267.1,407 267.1,406.9 
			267.1,407 267.1,407 267.1,406.1 266,406.1 266,407 267.1,407 267.1,407 		"/>
		<rect x="266.1" y="403.8" fill="#FFFFFF" width="1" height="0.8"/>
		<polygon fill="#FFFFFF" points="267.1,404.5 267.1,404.4 266.2,404.4 266.2,403.8 267,403.8 267,404.5 267.1,404.5 267.1,404.4 
			267.1,404.5 267.1,404.5 267.1,403.7 266,403.7 266,404.6 267.1,404.6 267.1,404.5 		"/>
		<rect x="266.1" y="401.3" fill="#FFFFFF" width="1" height="0.8"/>
		<polygon fill="#FFFFFF" points="267.1,402 267.1,402 266.2,402 266.2,401.4 267,401.4 267,402 267.1,402 267.1,402 267.1,402 
			267.1,402 267.1,401.2 266,401.2 266,402.1 267.1,402.1 267.1,402 		"/>
		<rect x="260.6" y="401.5" fill="#FFFFFF" width="1" height="0.8"/>
		<polygon fill="#FFFFFF" points="261.6,402.3 261.6,402.3 260.7,402.3 260.7,401.6 261.5,401.6 261.5,402.3 261.6,402.3 
			261.6,402.3 261.6,402.3 261.6,402.3 261.6,401.4 260.5,401.4 260.5,402.4 261.6,402.4 261.6,402.3 		"/>
		<rect x="260.6" y="401.4" fill="#FFFFFF" width="1" height="0.8"/>
		<polygon fill="#FFFFFF" points="261.6,402.3 261.6,402.1 260.7,402.1 260.7,401.5 261.5,401.5 261.5,402.3 261.6,402.3 
			261.6,402.1 261.6,402.3 261.6,402.3 261.6,401.4 260.5,401.4 260.5,402.3 261.6,402.3 261.6,402.3 		"/>
		<rect x="260.6" y="401.5" fill="#FFFFFF" width="1" height="0.8"/>
		<polygon fill="#FFFFFF" points="261.6,402.3 261.6,402.3 260.7,402.3 260.7,401.6 261.5,401.6 261.5,402.3 261.6,402.3 
			261.6,402.3 261.6,402.3 261.6,402.3 261.6,401.4 260.5,401.4 260.5,402.4 261.6,402.4 261.6,402.3 		"/>
		<rect x="260.6" y="401.4" fill="#FFFFFF" width="1" height="0.8"/>
		<polygon fill="#FFFFFF" points="261.6,402.3 261.6,402.1 260.7,402.1 260.7,401.5 261.6,401.5 261.6,402.3 261.6,402.3 
			261.6,402.1 261.6,402.3 261.7,402.3 261.7,401.4 260.5,401.4 260.5,402.3 261.7,402.3 261.7,402.3 		"/>
		<rect x="260.6" y="401.5" fill="#FFFFFF" width="1" height="0.8"/>
		<polygon fill="#FFFFFF" points="261.6,402.3 261.6,402.3 260.7,402.3 260.7,401.6 261.5,401.6 261.5,402.3 261.6,402.3 
			261.6,402.3 261.6,402.3 261.6,402.3 261.6,401.4 260.5,401.4 260.5,402.4 261.6,402.4 261.6,402.3 		"/>
		<rect x="248.1" y="407.3" fill="#FFFFFF" width="1" height="0.8"/>
		<polygon fill="#FFFFFF" points="249.1,408.1 249.1,408.1 248.2,408.1 248.2,407.4 249.1,407.4 249.1,408.1 249.1,408.1 
			249.1,408.1 249.1,408.1 249.2,408.1 249.2,407.3 248,407.3 248,408.2 249.2,408.2 249.2,408.1 		"/>
		<line fill="none" x1="244.6" y1="408.7" x2="270.1" y2="408.9"/>
		<line fill="none" x1="244.6" y1="409.8" x2="270.1" y2="409.8"/>
		<rect x="249.1" y="411.2" fill="#FFFFFF" width="1.9" height="0.8"/>
		<polygon fill="#231F20" points="251,412 251,411.9 249.2,411.9 249.2,411.3 250.9,411.3 250.9,412 251,412 251,411.9 251,412 
			251.1,412 251.1,411.1 249.1,411.1 249.1,412.1 251.1,412.1 251.1,412 		"/>
		<rect x="252.1" y="411.2" fill="#FFFFFF" width="1.9" height="0.8"/>
		<polygon fill="#231F20" points="254,412 254,411.9 252.2,411.9 252.2,411.3 253.9,411.3 253.9,412 254,412 254,411.9 254,412 
			254.1,412 254.1,411.1 252,411.1 252,412.1 254.1,412.1 254.1,412 		"/>
		<rect x="255.2" y="411.2" fill="#FFFFFF" width="1.9" height="0.8"/>
		<polygon fill="#231F20" points="257.2,412 257.2,411.9 255.4,411.9 255.4,411.3 257.1,411.3 257.1,412 257.2,412 257.2,411.9 
			257.2,412 257.2,412 257.2,411.1 255.2,411.1 255.2,412.1 257.2,412.1 257.2,412 		"/>
		<rect x="258.1" y="411.2" fill="#FFFFFF" width="1.9" height="0.8"/>
		<polygon fill="#231F20" points="260.1,412 260.1,411.9 258.2,411.9 258.2,411.3 260,411.3 260,412 260.1,412 260.1,411.9 
			260.1,412 260.1,412 260.1,411.1 258.1,411.1 258.1,412.1 260.1,412.1 260.1,412 		"/>
		<rect x="261.1" y="411.2" fill="#FFFFFF" width="1.9" height="0.8"/>
		<polygon fill="#231F20" points="263,412 263,411.9 261.2,411.9 261.2,411.3 262.9,411.3 262.9,412 263,412 263,411.9 263,412 
			263.1,412 263.1,411.1 261,411.1 261,412.1 263.1,412.1 263.1,412 		"/>
		<rect x="266.8" y="411.2" fill="#FFFFFF" width="1.9" height="0.8"/>
		<polygon fill="#231F20" points="268.7,412 268.7,411.9 266.8,411.9 266.8,411.3 268.6,411.3 268.6,412 268.7,412 268.7,411.9 
			268.7,412 268.8,412 268.8,411.1 266.7,411.1 266.7,412.1 268.8,412.1 268.8,412 		"/>
		<rect x="263.9" y="411.2" fill="#FFFFFF" width="1.9" height="0.8"/>
		<polygon fill="#231F20" points="265.9,412 265.9,411.9 264,411.9 264,411.3 265.8,411.3 265.8,412 265.9,412 265.9,411.9 
			265.9,412 265.9,412 265.9,411.1 263.9,411.1 263.9,412.1 265.9,412.1 265.9,412 		"/>
		<rect x="246.1" y="411.2" fill="#FFFFFF" width="1.9" height="0.8"/>
		<polygon fill="#231F20" points="248,412 248,411.9 246.2,411.9 246.2,411.3 247.9,411.3 247.9,412 248,412 248,411.9 248,412 
			248.1,412 248.1,411.1 246,411.1 246,412.1 248.1,412.1 248.1,412 		"/>
		<rect x="251" y="401.9" fill="#008FB6" width="4.1" height="7.1"/>
		<rect x="256.7" y="397.7" fill="#008FB6" width="5.1" height="11.2"/>
		<rect x="245.7" y="404.4" fill="#008FB6" width="4.1" height="4.5"/>
		<rect x="251.7" y="402.9" fill="#FFFFFF" width="1" height="0.8"/>
		<polygon fill="#FFFFFF" points="252.6,403.8 252.6,403.7 251.7,403.7 251.7,403 252.5,403 252.5,403.8 252.6,403.8 252.6,403.7 
			252.6,403.8 252.7,403.8 252.7,402.9 251.5,402.9 251.5,403.8 252.7,403.8 252.7,403.8 		"/>
		<rect x="251.7" y="404.6" fill="#FFFFFF" width="1" height="0.8"/>
		<polygon fill="#FFFFFF" points="252.6,405.5 252.6,405.4 251.7,405.4 251.7,404.7 252.5,404.7 252.5,405.5 252.6,405.5 
			252.6,405.4 252.6,405.5 252.7,405.5 252.7,404.6 251.5,404.6 251.5,405.5 252.7,405.5 252.7,405.5 		"/>
		<rect x="251.7" y="406.3" fill="#FFFFFF" width="1" height="0.8"/>
		<polygon fill="#FFFFFF" points="252.6,407.1 252.6,407 251.7,407 251.7,406.4 252.5,406.4 252.5,407.1 252.6,407.1 252.6,407 
			252.6,407.1 252.7,407.1 252.7,406.2 251.5,406.2 251.5,407.2 252.7,407.2 252.7,407.1 		"/>
		<rect x="253.5" y="406.3" fill="#FFFFFF" width="1" height="0.8"/>
		<polygon fill="#FFFFFF" points="254.5,407.1 254.5,407 253.6,407 253.6,406.4 254.4,406.4 254.4,407.1 254.5,407.1 254.5,407 
			254.5,407.1 254.6,407.1 254.6,406.2 253.4,406.2 253.4,407.2 254.6,407.2 254.6,407.1 		"/>
		<rect x="253.5" y="404.6" fill="#FFFFFF" width="1" height="0.8"/>
		<polygon fill="#FFFFFF" points="254.5,405.4 254.5,405.3 253.6,405.3 253.6,404.7 254.4,404.7 254.4,405.4 254.5,405.4 
			254.5,405.3 254.5,405.4 254.6,405.4 254.6,404.6 253.4,404.6 253.4,405.5 254.6,405.5 254.6,405.4 		"/>
		<rect x="253.5" y="402.9" fill="#FFFFFF" width="1" height="0.8"/>
		<polygon fill="#FFFFFF" points="254.5,403.8 254.5,403.7 253.6,403.7 253.6,403 254.4,403 254.4,403.8 254.5,403.8 254.5,403.7 
			254.5,403.8 254.6,403.8 254.6,402.9 253.4,402.9 253.4,403.8 254.6,403.8 254.6,403.8 		"/>
		<rect x="246.1" y="405.2" fill="#FFFFFF" width="1" height="0.8"/>
		<polygon fill="#FFFFFF" points="247.1,406 247.1,405.9 246.2,405.9 246.2,405.2 247,405.2 247,406 247.1,406 247.1,405.9 
			247.1,406 247.2,406 247.2,405.1 246,405.1 246,406.1 247.2,406.1 247.2,406 		"/>
		<rect x="248.1" y="405.2" fill="#FFFFFF" width="1" height="0.8"/>
		<polygon fill="#FFFFFF" points="249.1,406 249.1,405.9 248.2,405.9 248.2,405.2 249.1,405.2 249.1,406 249.1,406 249.1,405.9 
			249.1,406 249.2,406 249.2,405.1 248,405.1 248,406.1 249.2,406.1 249.2,406 		"/>
		<rect x="257.8" y="399.2" fill="#FFFFFF" width="1" height="0.8"/>
		<polygon fill="#FFFFFF" points="258.8,400 258.8,399.9 257.9,399.9 257.9,399.3 258.7,399.3 258.7,400 258.8,400 258.8,399.9 
			258.8,400 258.9,400 258.9,399.1 257.8,399.1 257.8,400 258.9,400 258.9,400 		"/>
		<rect x="257.8" y="401.4" fill="#FFFFFF" width="1" height="0.8"/>
		<polygon fill="#FFFFFF" points="258.8,402.3 258.8,402.1 257.9,402.1 257.9,401.5 258.7,401.5 258.7,402.3 258.8,402.3 
			258.8,402.1 258.8,402.3 258.9,402.3 258.9,401.4 257.8,401.4 257.8,402.3 258.9,402.3 258.9,402.3 		"/>
		<rect x="259.8" y="401.4" fill="#FFFFFF" width="1" height="0.8"/>
		<polygon fill="#FFFFFF" points="260.8,402.3 260.8,402.1 259.9,402.1 259.9,401.5 260.7,401.5 260.7,402.3 260.8,402.3 
			260.8,402.1 260.8,402.3 260.9,402.3 260.9,401.4 259.8,401.4 259.8,402.3 260.9,402.3 260.9,402.3 		"/>
		<rect x="259.7" y="399.2" fill="#FFFFFF" width="1" height="0.8"/>
		<polygon fill="#FFFFFF" points="260.7,400 260.7,399.9 259.8,399.9 259.8,399.3 260.6,399.3 260.6,400 260.7,400 260.7,399.9 
			260.7,400 260.7,400 260.7,399.1 259.6,399.1 259.6,400 260.7,400 260.7,400 		"/>
		<rect x="257.8" y="403.5" fill="#FFFFFF" width="1" height="0.8"/>
		<polygon fill="#FFFFFF" points="258.8,404.3 258.8,404.2 257.9,404.2 257.9,403.6 258.7,403.6 258.7,404.3 258.8,404.3 
			258.8,404.2 258.8,404.3 258.9,404.3 258.9,403.4 257.8,403.4 257.8,404.4 258.9,404.4 258.9,404.3 		"/>
		<rect x="257.8" y="405.8" fill="#FFFFFF" width="1" height="0.8"/>
		<polygon fill="#FFFFFF" points="258.8,406.6 258.8,406.5 257.9,406.5 257.9,405.8 258.7,405.8 258.7,406.6 258.8,406.6 
			258.8,406.5 258.8,406.6 258.9,406.6 258.9,405.7 257.8,405.7 257.8,406.7 258.9,406.7 258.9,406.6 		"/>
		<rect x="259.8" y="405.8" fill="#FFFFFF" width="1" height="0.8"/>
		<polygon fill="#FFFFFF" points="260.8,406.6 260.8,406.5 259.9,406.5 259.9,405.8 260.7,405.8 260.7,406.6 260.8,406.6 
			260.8,406.5 260.8,406.6 260.9,406.6 260.9,405.7 259.8,405.7 259.8,406.7 260.9,406.7 260.9,406.6 		"/>
		<rect x="259.8" y="403.5" fill="#FFFFFF" width="1" height="0.8"/>
		<polygon fill="#FFFFFF" points="260.8,404.3 260.8,404.2 259.9,404.2 259.9,403.6 260.7,403.6 260.7,404.3 260.8,404.3 
			260.8,404.2 260.8,404.3 260.9,404.3 260.9,403.4 259.8,403.4 259.8,404.4 260.9,404.4 260.9,404.3 		"/>
		<rect x="246.1" y="407.3" fill="#FFFFFF" width="1" height="0.8"/>
		<polygon fill="#FFFFFF" points="247.1,408.1 247.1,408.1 246.1,408.1 246.2,407.4 247,407.4 247,408.1 247.1,408.1 247.1,408.1 
			247.1,408.1 247.2,408.1 247.2,407.3 246,407.3 246,408.2 247.2,408.2 247.2,408.1 		"/>
		<rect x="248.1" y="407.3" fill="#FFFFFF" width="1" height="0.8"/>
		<polygon fill="#FFFFFF" points="249.1,408.1 249.1,408.1 248.2,408.1 248.2,407.4 249.1,407.4 249.1,408.1 249.1,408.1 
			249.1,408.1 249.1,408.1 249.2,408.1 249.2,407.3 248,407.3 248,408.2 249.2,408.2 249.2,408.1 		"/>
	</g>
</g>
</svg>
